<?xml version="1.0" encoding="utf-8"?>
<!-- Generator: Adobe Illustrator 21.1.0, SVG Export Plug-In . SVG Version: 6.00 Build 0)  -->
<svg version="1.1" id="Layer_1" xmlns="http://www.w3.org/2000/svg" xmlns:xlink="http://www.w3.org/1999/xlink" x="0px" y="0px"
	 viewBox="0 0 66 66" style="enable-background:new 0 0 66 66;" xml:space="preserve">
<style type="text/css">
	.st0{fill:#27AE61;}
</style>
<path class="st0" d="M62,46.2v-0.2v-1.3v-5.2c1.4-0.4,2.5-1.7,2.5-3.3c0-1.9-1.5-3.4-3.4-3.4c-0.9,0-1.8,0.4-2.4,1l-5.6-3.2
	c0.1-0.3,0.1-0.6,0.1-1c0-1.6-1.1-2.9-2.5-3.3v-6.2c1.4-0.4,2.5-1.7,2.5-3.3c0-1.9-1.5-3.4-3.4-3.4c-0.9,0-1.8,0.4-2.4,1l-5.6-3.2
	c0.1-0.3,0.1-0.6,0.1-1c0-1.9-1.5-3.4-3.4-3.4c-1.9,0-3.4,1.5-3.4,3.4c0,0.3,0.1,0.7,0.1,1l-5.6,3.2c-0.6-0.6-1.5-1-2.4-1
	c-0.9,0-1.7,0.4-2.4,0.9l-5.6-3.2c0.1-0.3,0.1-0.6,0.1-1c0-1.9-1.5-3.4-3.4-3.4c-1.9,0-3.4,1.5-3.4,3.4c0,0.3,0.1,0.7,0.1,1l-1,0.6
	c0,0,0,0-0.1,0l-4.5,2.6c-0.6-0.6-1.5-1-2.4-1c-1.9,0-3.4,1.5-3.4,3.4c0,1.6,1.1,2.9,2.5,3.3v6.6c-1.4,0.4-2.5,1.7-2.5,3.3
	c0,1.9,1.5,3.4,3.4,3.4c1,0,1.9-0.4,2.5-1.1l5.4,3.1c-0.1,0.3-0.1,0.6-0.1,0.9c0,1.6,1.1,2.9,2.5,3.3v6.6c-1.4,0.4-2.5,1.7-2.5,3.3
	c0,1.9,1.5,3.4,3.4,3.4c1,0,1.9-0.4,2.5-1.1l5.4,3.1C24,55.2,24,55.5,24,55.8c0,1.9,1.5,3.4,3.4,3.4c1.9,0,3.4-1.5,3.4-3.4
	c0-0.3,0-0.6-0.1-0.8l5.4-3.1c0.6,0.7,1.5,1.1,2.5,1.1c1,0,1.9-0.4,2.5-1.1l5.4,3.1c-0.1,0.3-0.1,0.6-0.1,0.8c0,1.9,1.5,3.4,3.4,3.4
	c1.9,0,3.4-1.5,3.4-3.4c0-0.3,0-0.6-0.1-0.8l5.4-3.1c0.6,0.7,1.5,1.1,2.5,1.1c1.9,0,3.4-1.5,3.4-3.4C64.5,48,63.4,46.6,62,46.2z
	 M61.1,34.8c0.9,0,1.6,0.7,1.6,1.6c0,0.9-0.7,1.6-1.6,1.6c-0.9,0-1.6-0.7-1.6-1.6C59.5,35.5,60.2,34.8,61.1,34.8z M51.4,29.7
	c0,0.9-0.7,1.6-1.6,1.6c-0.9,0-1.6-0.7-1.6-1.6c0-0.9,0.7-1.6,1.6-1.6C50.7,28.1,51.4,28.8,51.4,29.7z M49.8,15.3
	c0.9,0,1.6,0.7,1.6,1.6c0,0.9-0.7,1.6-1.6,1.6c-0.9,0-1.6-0.7-1.6-1.6C48.3,16,49,15.3,49.8,15.3z M38.6,8.7c0.9,0,1.6,0.7,1.6,1.6
	c0,0.9-0.7,1.6-1.6,1.6c-0.9,0-1.6-0.7-1.6-1.6C37,9.4,37.7,8.7,38.6,8.7z M30.8,16.9c0-0.3,0-0.6-0.1-0.8l5.6-3.3
	c0.6,0.5,1.4,0.9,2.3,0.9c0.9,0,1.7-0.3,2.3-0.9l5.6,3.3c-0.1,0.3-0.1,0.5-0.1,0.8c0,1.6,1.1,2.9,2.5,3.3v6.2
	c-1.4,0.4-2.4,1.7-2.4,3.3c0,0.3,0,0.7,0.1,1L41,33.9c-0.6-0.6-1.4-1-2.4-1c0,0,0,0,0,0c0,0,0,0,0,0c-0.9,0-1.8,0.4-2.4,1l-5.6-3.2
	c0.1-0.3,0.1-0.6,0.1-1c0-1.6-1.1-2.9-2.5-3.3v-6.2C29.7,19.8,30.8,18.5,30.8,16.9z M40.2,36.3c0,0.9-0.7,1.5-1.5,1.6
	c-0.8,0-1.5-0.7-1.5-1.6c0-0.9,0.7-1.5,1.5-1.6C39.5,34.8,40.2,35.5,40.2,36.3z M28.9,29.7c0,0.9-0.7,1.6-1.6,1.6
	c-0.9,0-1.6-0.7-1.6-1.6c0-0.9,0.7-1.6,1.6-1.6C28.2,28.1,28.9,28.8,28.9,29.7z M27.4,15.3c0.9,0,1.6,0.7,1.6,1.6
	c0,0.9-0.7,1.6-1.6,1.6c-0.9,0-1.6-0.7-1.6-1.6C25.8,16,26.5,15.3,27.4,15.3z M16.1,8.7c0.9,0,1.6,0.7,1.6,1.6
	c0,0.9-0.7,1.6-1.6,1.6c-0.9,0-1.6-0.7-1.6-1.6C14.6,9.4,15.3,8.7,16.1,8.7z M3.4,16.9c0-0.9,0.7-1.6,1.6-1.6c0.9,0,1.6,0.7,1.6,1.6
	c0,0.9-0.7,1.6-1.6,1.6C4.1,18.4,3.4,17.7,3.4,16.9z M4.9,31.6c-0.9,0-1.6-0.7-1.6-1.6c0-0.9,0.7-1.6,1.6-1.6c0.9,0,1.6,0.7,1.6,1.6
	C6.5,30.9,5.8,31.6,4.9,31.6z M13.8,33.9l-5.5-3.2c0-0.2,0.1-0.4,0.1-0.7c0-1.6-1.1-2.9-2.5-3.3v-6.6c1.4-0.4,2.5-1.7,2.5-3.3
	c0-0.3,0-0.6-0.1-0.8l4.3-2.5c0,0,0.1,0,0.1,0l1.2-0.7c0.6,0.5,1.4,0.9,2.3,0.9c0.9,0,1.7-0.3,2.3-0.9l5.7,3.3
	C24,16.3,24,16.6,24,16.9c0,1.6,1.1,2.9,2.5,3.3v6.2C25,26.8,24,28.1,24,29.7c0,0.3,0,0.6,0.1,0.9l-5.6,3.2
	c-0.6-0.6-1.4-0.9-2.4-0.9C15.2,32.9,14.4,33.3,13.8,33.9z M14.6,36.3c0-0.9,0.7-1.6,1.6-1.6c0.9,0,1.6,0.7,1.6,1.6
	c0,0.9-0.7,1.6-1.6,1.6C15.3,37.9,14.6,37.2,14.6,36.3z M16.1,51.1c-0.9,0-1.6-0.7-1.6-1.6c0-0.9,0.7-1.6,1.6-1.6
	c0.9,0,1.6,0.7,1.6,1.6C17.7,50.4,17,51.1,16.1,51.1z M27.4,57.3c-0.9,0-1.6-0.7-1.6-1.6c0-0.9,0.7-1.6,1.6-1.6
	c0.9,0,1.6,0.7,1.6,1.6C28.9,56.6,28.2,57.3,27.4,57.3z M35.2,49.5c0,0.2,0,0.4,0.1,0.6l-5.5,3.2c-0.6-0.6-1.5-1-2.4-1
	s-1.8,0.4-2.4,1l-5.5-3.2c0-0.2,0.1-0.4,0.1-0.7c0-1.6-1.1-2.9-2.5-3.3v-6.6c1.4-0.4,2.5-1.7,2.5-3.3c0-0.3,0-0.6-0.1-0.8l5.6-3.3
	c0.6,0.5,1.4,0.9,2.3,0.9c0.9,0,1.7-0.3,2.3-0.9l5.6,3.3c-0.1,0.3-0.1,0.6-0.1,0.8c0,1.6,1.1,2.9,2.5,3.3v6.6
	C36.3,46.7,35.2,48,35.2,49.5z M38.6,51.1c-0.9,0-1.6-0.7-1.6-1.6c0-0.9,0.7-1.6,1.6-1.6c0.9,0,1.6,0.7,1.6,1.6
	C40.2,50.4,39.5,51.1,38.6,51.1z M49.9,57.3c-0.9,0-1.6-0.7-1.6-1.6c0-0.9,0.7-1.6,1.6-1.6c0.9,0,1.6,0.7,1.6,1.6
	C51.4,56.6,50.7,57.3,49.9,57.3z M57.7,49.5c0,0.2,0,0.4,0.1,0.7l-5.5,3.2c-0.6-0.6-1.5-1-2.4-1c-0.9,0-1.8,0.4-2.4,1L42,50.2
	c0-0.2,0.1-0.4,0.1-0.7c0-1.6-1.1-2.9-2.5-3.3v-6.6c1.4-0.4,2.5-1.7,2.5-3.3c0-0.3,0-0.6-0.1-0.8l5.6-3.3c0.6,0.5,1.4,0.9,2.3,0.9
	c0.9,0,1.7-0.3,2.3-0.9l5.6,3.3c-0.1,0.3-0.1,0.5-0.1,0.8c0,1.6,1.1,2.9,2.5,3.3v6.4c0,0,0,0,0,0v0.2C58.7,46.6,57.7,48,57.7,49.5z
	 M61.1,51.1c-0.9,0-1.6-0.7-1.6-1.6c0-0.9,0.7-1.6,1.6-1.6c0.9,0,1.6,0.7,1.6,1.6C62.6,50.4,61.9,51.1,61.1,51.1z"/>
</svg>
